<svg width="20" height="21" viewBox="0 0 20 21" fill="none" xmlns="http://www.w3.org/2000/svg">
<path d="M15 1.84001C16.5083 2.71087 17.7629 3.96054 18.6398 5.46531C19.5167 6.97009 19.9854 8.67779 19.9994 10.4194C20.0135 12.1609 19.5725 13.876 18.72 15.3947C17.8676 16.9135 16.6332 18.1832 15.1392 19.0783C13.6452 19.9734 11.9434 20.4628 10.2021 20.4981C8.46083 20.5333 6.74055 20.1132 5.21155 19.2793C3.68256 18.4453 2.39787 17.2265 1.48467 15.7435C0.571462 14.2605 0.0614093 12.5647 0.00500011 10.824L0 10.5L0.00500011 10.176C0.0610032 8.449 0.563548 6.76598 1.46364 5.29101C2.36373 3.81604 3.63065 2.59947 5.14089 1.7599C6.65113 0.920327 8.35315 0.486411 10.081 0.500452C11.8089 0.514493 13.5036 0.976012 15 1.84001ZM13.707 7.79302C13.5348 7.62084 13.3057 7.51741 13.0627 7.50213C12.8197 7.48685 12.5794 7.56076 12.387 7.71001L12.293 7.79302L9 11.085L7.707 9.79301L7.613 9.71001C7.42058 9.56087 7.18037 9.48704 6.9374 9.50237C6.69444 9.5177 6.46541 9.62113 6.29326 9.79328C6.12112 9.96542 6.01768 10.1945 6.00235 10.4374C5.98702 10.6804 6.06086 10.9206 6.21 11.113L6.293 11.207L8.293 13.207L8.387 13.29C8.56237 13.4261 8.77803 13.4999 9 13.4999C9.22197 13.4999 9.43763 13.4261 9.613 13.29L9.707 13.207L13.707 9.20701L13.79 9.11301C13.9393 8.92061 14.0132 8.68036 13.9979 8.43733C13.9826 8.19431 13.8792 7.96521 13.707 7.79302Z" fill="#C8C7CB"/>
</svg>
